<mxfile host="app.diagrams.net" modified="2024-02-16T08:21:01.262Z" agent="Mozilla/5.0 (Macintosh; Intel Mac OS X 10_15_7) AppleWebKit/537.36 (KHTML, like Gecko) Chrome/121.0.0.0 Safari/537.36" etag="Dnj97munuhnWBLjlNyTg" version="23.1.4" type="google">
  <diagram name="Page-1" id="zldDoCoPoXQY3jf72VAM">
    <mxGraphModel dx="1949" dy="762" grid="1" gridSize="10" guides="1" tooltips="1" connect="1" arrows="1" fold="1" page="1" pageScale="1" pageWidth="827" pageHeight="1169" math="0" shadow="0">
      <root>
        <mxCell id="0" />
        <mxCell id="1" parent="0" />
        <mxCell id="LO58giyWBsB74Z7oyxOB-1" value="DATE" style="ellipse;whiteSpace=wrap;html=1;" vertex="1" parent="1">
          <mxGeometry x="10" y="70" width="110" height="50" as="geometry" />
        </mxCell>
        <mxCell id="LO58giyWBsB74Z7oyxOB-3" value="GAME" style="rhombus;whiteSpace=wrap;html=1;" vertex="1" parent="1">
          <mxGeometry x="50" y="140" width="160" height="80" as="geometry" />
        </mxCell>
        <mxCell id="LO58giyWBsB74Z7oyxOB-4" value="TEAM" style="rounded=0;whiteSpace=wrap;html=1;" vertex="1" parent="1">
          <mxGeometry x="60" y="260" width="120" height="60" as="geometry" />
        </mxCell>
        <mxCell id="LO58giyWBsB74Z7oyxOB-5" value="CAPTAIN" style="rhombus;whiteSpace=wrap;html=1;" vertex="1" parent="1">
          <mxGeometry x="280" y="180" width="160" height="80" as="geometry" />
        </mxCell>
        <mxCell id="LO58giyWBsB74Z7oyxOB-6" value="BELONG&lt;br&gt;TO" style="rhombus;whiteSpace=wrap;html=1;" vertex="1" parent="1">
          <mxGeometry x="631" y="254" width="110" height="60" as="geometry" />
        </mxCell>
        <mxCell id="LO58giyWBsB74Z7oyxOB-7" value="SCORE" style="ellipse;whiteSpace=wrap;html=1;" vertex="1" parent="1">
          <mxGeometry x="160" y="70" width="110" height="50" as="geometry" />
        </mxCell>
        <mxCell id="LO58giyWBsB74Z7oyxOB-9" value="T-NAME" style="ellipse;whiteSpace=wrap;html=1;" vertex="1" parent="1">
          <mxGeometry x="-70" y="370" width="110" height="50" as="geometry" />
        </mxCell>
        <mxCell id="LO58giyWBsB74Z7oyxOB-10" value="CITY" style="ellipse;whiteSpace=wrap;html=1;" vertex="1" parent="1">
          <mxGeometry x="40" y="430" width="110" height="50" as="geometry" />
        </mxCell>
        <mxCell id="LO58giyWBsB74Z7oyxOB-11" value="COACH" style="ellipse;whiteSpace=wrap;html=1;" vertex="1" parent="1">
          <mxGeometry x="170" y="370" width="110" height="50" as="geometry" />
        </mxCell>
        <mxCell id="LO58giyWBsB74Z7oyxOB-12" value="PLAYER" style="rounded=0;whiteSpace=wrap;html=1;" vertex="1" parent="1">
          <mxGeometry x="481" y="254" width="120" height="60" as="geometry" />
        </mxCell>
        <mxCell id="LO58giyWBsB74Z7oyxOB-13" value="P-NAME" style="ellipse;whiteSpace=wrap;html=1;" vertex="1" parent="1">
          <mxGeometry x="383" y="354" width="110" height="50" as="geometry" />
        </mxCell>
        <mxCell id="LO58giyWBsB74Z7oyxOB-14" value="POSITION" style="ellipse;whiteSpace=wrap;html=1;" vertex="1" parent="1">
          <mxGeometry x="561" y="354" width="110" height="50" as="geometry" />
        </mxCell>
        <mxCell id="LO58giyWBsB74Z7oyxOB-15" value="INJURY RECORD" style="rounded=0;whiteSpace=wrap;html=1;" vertex="1" parent="1">
          <mxGeometry x="796.5" y="254" width="120" height="60" as="geometry" />
        </mxCell>
        <mxCell id="LO58giyWBsB74Z7oyxOB-16" value="ID" style="ellipse;whiteSpace=wrap;html=1;" vertex="1" parent="1">
          <mxGeometry x="721" y="374" width="60" height="40" as="geometry" />
        </mxCell>
        <mxCell id="LO58giyWBsB74Z7oyxOB-17" value="DESCRIPTIPON" style="ellipse;whiteSpace=wrap;html=1;" vertex="1" parent="1">
          <mxGeometry x="870" y="374" width="113" height="50" as="geometry" />
        </mxCell>
        <mxCell id="LO58giyWBsB74Z7oyxOB-18" value="SKILL LEVEL" style="ellipse;whiteSpace=wrap;html=1;" vertex="1" parent="1">
          <mxGeometry x="510" y="140" width="80" height="50" as="geometry" />
        </mxCell>
        <mxCell id="LO58giyWBsB74Z7oyxOB-27" value="" style="endArrow=none;html=1;rounded=0;exitX=0;exitY=0;exitDx=0;exitDy=0;" edge="1" parent="1" source="LO58giyWBsB74Z7oyxOB-3">
          <mxGeometry width="50" height="50" relative="1" as="geometry">
            <mxPoint x="20" y="170" as="sourcePoint" />
            <mxPoint x="70" y="120" as="targetPoint" />
          </mxGeometry>
        </mxCell>
        <mxCell id="LO58giyWBsB74Z7oyxOB-28" value="" style="endArrow=none;html=1;rounded=0;exitX=1;exitY=0;exitDx=0;exitDy=0;" edge="1" parent="1" source="LO58giyWBsB74Z7oyxOB-3">
          <mxGeometry width="50" height="50" relative="1" as="geometry">
            <mxPoint x="170" y="170" as="sourcePoint" />
            <mxPoint x="220" y="120" as="targetPoint" />
          </mxGeometry>
        </mxCell>
        <mxCell id="LO58giyWBsB74Z7oyxOB-30" value="" style="endArrow=none;html=1;rounded=0;exitX=0.583;exitY=0;exitDx=0;exitDy=0;exitPerimeter=0;" edge="1" parent="1" source="LO58giyWBsB74Z7oyxOB-4">
          <mxGeometry width="50" height="50" relative="1" as="geometry">
            <mxPoint x="80" y="270" as="sourcePoint" />
            <mxPoint x="130" y="220" as="targetPoint" />
          </mxGeometry>
        </mxCell>
        <mxCell id="LO58giyWBsB74Z7oyxOB-31" value="" style="endArrow=none;html=1;rounded=0;entryX=0;entryY=0.5;entryDx=0;entryDy=0;" edge="1" parent="1" target="LO58giyWBsB74Z7oyxOB-5">
          <mxGeometry width="50" height="50" relative="1" as="geometry">
            <mxPoint x="180" y="300" as="sourcePoint" />
            <mxPoint x="230" y="250" as="targetPoint" />
          </mxGeometry>
        </mxCell>
        <mxCell id="LO58giyWBsB74Z7oyxOB-32" value="" style="endArrow=none;html=1;rounded=0;" edge="1" parent="1" source="LO58giyWBsB74Z7oyxOB-9">
          <mxGeometry width="50" height="50" relative="1" as="geometry">
            <mxPoint x="70" y="370" as="sourcePoint" />
            <mxPoint x="120" y="320" as="targetPoint" />
          </mxGeometry>
        </mxCell>
        <mxCell id="LO58giyWBsB74Z7oyxOB-33" value="" style="endArrow=none;html=1;rounded=0;" edge="1" parent="1" source="LO58giyWBsB74Z7oyxOB-10">
          <mxGeometry width="50" height="50" relative="1" as="geometry">
            <mxPoint x="70" y="370" as="sourcePoint" />
            <mxPoint x="120" y="320" as="targetPoint" />
          </mxGeometry>
        </mxCell>
        <mxCell id="LO58giyWBsB74Z7oyxOB-34" value="" style="endArrow=none;html=1;rounded=0;exitX=0;exitY=0.5;exitDx=0;exitDy=0;" edge="1" parent="1" source="LO58giyWBsB74Z7oyxOB-11">
          <mxGeometry width="50" height="50" relative="1" as="geometry">
            <mxPoint x="160" y="390" as="sourcePoint" />
            <mxPoint x="120" y="320" as="targetPoint" />
          </mxGeometry>
        </mxCell>
        <mxCell id="LO58giyWBsB74Z7oyxOB-36" value="" style="endArrow=none;html=1;rounded=0;" edge="1" parent="1">
          <mxGeometry width="50" height="50" relative="1" as="geometry">
            <mxPoint x="549.5" y="184.64" as="sourcePoint" />
            <mxPoint x="549.5" y="255.35067811865474" as="targetPoint" />
          </mxGeometry>
        </mxCell>
        <mxCell id="LO58giyWBsB74Z7oyxOB-37" value="" style="endArrow=none;html=1;rounded=0;" edge="1" parent="1">
          <mxGeometry width="50" height="50" relative="1" as="geometry">
            <mxPoint x="491" y="364" as="sourcePoint" />
            <mxPoint x="541" y="314" as="targetPoint" />
          </mxGeometry>
        </mxCell>
        <mxCell id="LO58giyWBsB74Z7oyxOB-38" value="" style="endArrow=none;html=1;rounded=0;entryX=0.5;entryY=1;entryDx=0;entryDy=0;" edge="1" parent="1" target="LO58giyWBsB74Z7oyxOB-12">
          <mxGeometry width="50" height="50" relative="1" as="geometry">
            <mxPoint x="611" y="354" as="sourcePoint" />
            <mxPoint x="661" y="304" as="targetPoint" />
          </mxGeometry>
        </mxCell>
        <mxCell id="LO58giyWBsB74Z7oyxOB-40" value="" style="endArrow=none;html=1;rounded=0;entryX=0;entryY=0.5;entryDx=0;entryDy=0;exitX=1;exitY=0.5;exitDx=0;exitDy=0;" edge="1" parent="1" source="LO58giyWBsB74Z7oyxOB-12" target="LO58giyWBsB74Z7oyxOB-6">
          <mxGeometry width="50" height="50" relative="1" as="geometry">
            <mxPoint x="601" y="304" as="sourcePoint" />
            <mxPoint x="651" y="254" as="targetPoint" />
          </mxGeometry>
        </mxCell>
        <mxCell id="LO58giyWBsB74Z7oyxOB-41" value="" style="endArrow=none;html=1;rounded=0;exitX=1;exitY=0.5;exitDx=0;exitDy=0;" edge="1" parent="1" source="LO58giyWBsB74Z7oyxOB-6">
          <mxGeometry width="50" height="50" relative="1" as="geometry">
            <mxPoint x="731" y="314" as="sourcePoint" />
            <mxPoint x="801" y="284" as="targetPoint" />
          </mxGeometry>
        </mxCell>
        <mxCell id="LO58giyWBsB74Z7oyxOB-43" value="" style="endArrow=none;html=1;rounded=0;exitX=0.5;exitY=0;exitDx=0;exitDy=0;" edge="1" parent="1" source="LO58giyWBsB74Z7oyxOB-16">
          <mxGeometry width="50" height="50" relative="1" as="geometry">
            <mxPoint x="771" y="364" as="sourcePoint" />
            <mxPoint x="821" y="314" as="targetPoint" />
          </mxGeometry>
        </mxCell>
        <mxCell id="LO58giyWBsB74Z7oyxOB-44" value="" style="endArrow=none;html=1;rounded=0;exitX=0.788;exitY=0;exitDx=0;exitDy=0;exitPerimeter=0;entryX=0.588;entryY=1.05;entryDx=0;entryDy=0;entryPerimeter=0;" edge="1" parent="1" source="LO58giyWBsB74Z7oyxOB-17" target="LO58giyWBsB74Z7oyxOB-15">
          <mxGeometry width="50" height="50" relative="1" as="geometry">
            <mxPoint x="853" y="374" as="sourcePoint" />
            <mxPoint x="903" y="324" as="targetPoint" />
          </mxGeometry>
        </mxCell>
        <mxCell id="LO58giyWBsB74Z7oyxOB-45" value="" style="endArrow=none;html=1;rounded=0;entryX=1;entryY=0.5;entryDx=0;entryDy=0;exitX=0;exitY=0.5;exitDx=0;exitDy=0;" edge="1" parent="1" source="LO58giyWBsB74Z7oyxOB-12" target="LO58giyWBsB74Z7oyxOB-5">
          <mxGeometry width="50" height="50" relative="1" as="geometry">
            <mxPoint x="430" y="280" as="sourcePoint" />
            <mxPoint x="480" y="230" as="targetPoint" />
          </mxGeometry>
        </mxCell>
      </root>
    </mxGraphModel>
  </diagram>
</mxfile>
